<?xml version="1.0" encoding="UTF-8"?>
<svg version="1.1" xmlns="http://www.w3.org/2000/svg" width="846" height="1080">
<path d="M0 0 C205.92 0 411.84 0 624 0 C624 6.6 624 13.2 624 20 C644.13 20 664.26 20 685 20 C685 33.2 685 46.4 685 60 C691.6 60 698.2 60 705 60 C705 86.73 705 113.46 705 141 C711.27 141 717.54 141 724 141 C724 174.33 724 207.66 724 242 C717.73 242 711.46 242 705 242 C705 321.2 705 400.4 705 482 C711.27 482 717.54 482 724 482 C724 508.73 724 535.46 724 563 C717.73 563 711.46 563 705 563 C705 689.06 705 815.12 705 945 C698.4 945 691.8 945 685 945 C685 958.2 685 971.4 685 985 C678.4 985 671.8 985 665 985 C665 991.6 665 998.2 665 1005 C658.4 1005 651.8 1005 645 1005 C645 1011.6 645 1018.2 645 1025 C624.87 1025 604.74 1025 584 1025 C584 1031.93 584 1038.86 584 1046 C378.08 1046 172.16 1046 -40 1046 C-40 1039.07 -40 1032.14 -40 1025 C-46.6 1025 -53.2 1025 -60 1025 C-60 1018.4 -60 1011.8 -60 1005 C-66.6 1005 -73.2 1005 -80 1005 C-80 998.4 -80 991.8 -80 985 C-86.6 985 -93.2 985 -100 985 C-100 918.67 -100 852.34 -100 784 C-106.93 784 -113.86 784 -121 784 C-121.02311927 768.37121585 -121.04097937 752.74243773 -121.05181217 737.11364079 C-121.05697505 729.85741151 -121.06401758 722.60119304 -121.07543945 715.3449707 C-121.08538656 709.02266144 -121.09185349 702.70035999 -121.09408849 696.37804312 C-121.09539556 693.0284325 -121.09848113 689.67884426 -121.10573006 686.3292408 C-121.1129362 682.59586355 -121.11399112 678.86253342 -121.11352539 675.12915039 C-121.11712067 674.01065704 -121.12071594 672.8921637 -121.12442017 671.73977661 C-121.1230455 670.72870346 -121.12167084 669.71763031 -121.12025452 668.67591858 C-121.12117631 667.79191911 -121.1220981 666.90791964 -121.12304783 665.9971323 C-121 664 -121 664 -120 663 C-113.4 663 -106.8 663 -100 663 C-100 470.61 -100 278.22 -100 80 C-93.4 80 -86.8 80 -80 80 C-80 66.8 -80 53.6 -80 40 C-73.4 40 -66.8 40 -60 40 C-60 33.4 -60 26.8 -60 20 C-40.2 20 -20.4 20 0 20 C0 13.4 0 6.8 0 0 Z M-59 684 C-59 710.4 -59 736.8 -59 764 C-55.04 764 -51.08 764 -47 764 C-47 737.6 -47 711.2 -47 684 C-50.96 684 -54.92 684 -59 684 Z " fill="#70AEC7" transform="translate(122,17)"/>
<path d="M0 0 C205.92 0 411.84 0 624 0 C624 6.6 624 13.2 624 20 C644.13 20 664.26 20 685 20 C685 33.2 685 46.4 685 60 C691.6 60 698.2 60 705 60 C705 86.73 705 113.46 705 141 C711.27 141 717.54 141 724 141 C724 174.33 724 207.66 724 242 C717.73 242 711.46 242 705 242 C705 321.2 705 400.4 705 482 C711.27 482 717.54 482 724 482 C724 508.73 724 535.46 724 563 C717.73 563 711.46 563 705 563 C705 689.06 705 815.12 705 945 C698.4 945 691.8 945 685 945 C685 958.2 685 971.4 685 985 C678.4 985 671.8 985 665 985 C665 991.6 665 998.2 665 1005 C658.4 1005 651.8 1005 645 1005 C645 1011.6 645 1018.2 645 1025 C624.87 1025 604.74 1025 584 1025 C584 1031.93 584 1038.86 584 1046 C378.08 1046 172.16 1046 -40 1046 C-40 1039.07 -40 1032.14 -40 1025 C-46.6 1025 -53.2 1025 -60 1025 C-60 1018.4 -60 1011.8 -60 1005 C-66.6 1005 -73.2 1005 -80 1005 C-80 998.4 -80 991.8 -80 985 C-86.6 985 -93.2 985 -100 985 C-100 918.67 -100 852.34 -100 784 C-106.93 784 -113.86 784 -121 784 C-121.02311927 768.37121585 -121.04097937 752.74243773 -121.05181217 737.11364079 C-121.05697505 729.85741151 -121.06401758 722.60119304 -121.07543945 715.3449707 C-121.08538656 709.02266144 -121.09185349 702.70035999 -121.09408849 696.37804312 C-121.09539556 693.0284325 -121.09848113 689.67884426 -121.10573006 686.3292408 C-121.1129362 682.59586355 -121.11399112 678.86253342 -121.11352539 675.12915039 C-121.11712067 674.01065704 -121.12071594 672.8921637 -121.12442017 671.73977661 C-121.1230455 670.72870346 -121.12167084 669.71763031 -121.12025452 668.67591858 C-121.12117631 667.79191911 -121.1220981 666.90791964 -121.12304783 665.9971323 C-121 664 -121 664 -120 663 C-113.4 663 -106.8 663 -100 663 C-100 470.61 -100 278.22 -100 80 C-93.4 80 -86.8 80 -80 80 C-80 66.8 -80 53.6 -80 40 C-73.4 40 -66.8 40 -60 40 C-60 33.4 -60 26.8 -60 20 C-40.2 20 -20.4 20 0 20 C0 13.4 0 6.8 0 0 Z M-39 61 C-39 67.6 -39 74.2 -39 81 C-45.93 81 -52.86 81 -60 81 C-60 279.99 -60 478.98 -60 684 C-66.6 684 -73.2 684 -80 684 C-80 710.4 -80 736.8 -80 764 C-73.4 764 -66.8 764 -60 764 C-60 790.4 -60 816.8 -60 844 C-53.4 844 -46.8 844 -40 844 C-40 857.2 -40 870.4 -40 884 C-46.27 884 -52.54 884 -59 884 C-60.27116763 885.04756586 -60.27116763 885.04756586 -60.12025452 887.39808655 C-60.11803391 888.46175949 -60.11581329 889.52543243 -60.11352539 890.62133789 C-60.11341209 892.42309227 -60.11341209 892.42309227 -60.11329651 894.26124573 C-60.10813522 895.5685112 -60.10297394 896.87577667 -60.09765625 898.22265625 C-60.09579198 899.56644132 -60.09436812 900.91022707 -60.09336853 902.25401306 C-60.08954402 905.79682277 -60.07971432 909.3395917 -60.06866455 912.88238525 C-60.05844899 916.49515227 -60.0538706 920.10792584 -60.04882812 923.72070312 C-60.03809198 930.81382039 -60.02049572 937.90690325 -60 945 C-53.07 945 -46.14 945 -39 945 C-39 951.27 -39 957.54 -39 964 C-32.4 964 -25.8 964 -19 964 C-19 970.93 -19 977.86 -19 985 C173.39 985 365.78 985 564 985 C564 978.4 564 971.8 564 965 C570.6 965 577.2 965 584 965 C584 971.6 584 978.2 584 985 C597.2 985 610.4 985 624 985 C624 978.4 624 971.8 624 965 C617.4 965 610.8 965 604 965 C604 958.4 604 951.8 604 945 C623.8 945 643.6 945 664 945 C664 865.47 664 785.94 664 704 C657.4 704 650.8 704 644 704 C644 683.87 644 663.74 644 643 C650.6 643 657.2 643 664 643 C664 610 664 577 664 543 C670.6 543 677.2 543 684 543 C684 529.8 684 516.6 684 503 C677.4 503 670.8 503 664 503 C664 416.87 664 330.74 664 242 C670.6 242 677.2 242 684 242 C684 215.27 684 188.54 684 161 C677.4 161 670.8 161 664 161 C664 134.6 664 108.2 664 81 C657.4 81 650.8 81 644 81 C644 74.4 644 67.8 644 61 C418.61 61 193.22 61 -39 61 Z " fill="#87CDEA" transform="translate(122,17)"/>
<path d="M0 0 C225.39 0 450.78 0 683 0 C683 6.6 683 13.2 683 20 C689.6 20 696.2 20 703 20 C703 46.4 703 72.8 703 100 C696.4 100 689.8 100 683 100 C683 80.2 683 60.4 683 40 C663.2 40 643.4 40 623 40 C623 33.4 623 26.8 623 20 C437.21 20 251.42 20 60 20 C60 26.6 60 33.2 60 40 C40.2 40 20.4 40 0 40 C0 232.06 0 424.12 0 622 C-8 623 -8 623 -20 623 C-20 649.4 -20 675.8 -20 703 C-13.73 703 -7.46 703 -1 703 C-1 729.4 -1 755.8 -1 783 C-7.6 783 -14.2 783 -21 783 C-21 756.6 -21 730.2 -21 703 C-27.6 703 -34.2 703 -41 703 C-41 676.6 -41 650.2 -41 623 C-34.4 623 -27.8 623 -21 623 C-21 424.01 -21 225.02 -21 20 C-14.07 20 -7.14 20 0 20 C0 13.4 0 6.8 0 0 Z " fill="#FE3464" transform="translate(83,78)"/>
<path d="M0 0 C6.6 0 13.2 0 20 0 C20 13.2 20 26.4 20 40 C26.6 40 33.2 40 40 40 C40 46.6 40 53.2 40 60 C46.6 60 53.2 60 60 60 C60 66.6 60 73.2 60 80 C246.12 80 432.24 80 624 80 C624 86.6 624 93.2 624 100 C431.61 100 239.22 100 41 100 C41 93.07 41 86.14 41 79 C34.4 79 27.8 79 21 79 C21 72.73 21 66.46 21 60 C14.07 60 7.14 60 0 60 C0 40.2 0 20.4 0 0 Z " fill="#FE3464" transform="translate(62,902)"/>
<path d="M0 0 C6.6 0 13.2 0 20 0 C20 86.13 20 172.26 20 261 C26.6 261 33.2 261 40 261 C40 274.2 40 287.4 40 301 C33.4 301 26.8 301 20 301 C20 334 20 367 20 401 C13.4 401 6.8 401 0 401 C0 268.67 0 136.34 0 0 Z " fill="#FE3464" transform="translate(766,259)"/>
<path d="M0 0 C0.33 0 0.66 0 1 0 C1 125.73 1 251.46 1 381 C7.27 381 13.54 381 20 381 C20 261.87 20 142.74 20 20 C20.33 20 20.66 20 21 20 C21 212.06 21 404.12 21 602 C13 603 13 603 1 603 C1 629.4 1 655.8 1 683 C7.27 683 13.54 683 20 683 C20 709.4 20 735.8 20 763 C13.4 763 6.8 763 0 763 C0 736.6 0 710.2 0 683 C-6.6 683 -13.2 683 -20 683 C-20 656.6 -20 630.2 -20 603 C-13.4 603 -6.8 603 0 603 C0 404.01 0 205.02 0 0 Z " fill="#B890B0" transform="translate(62,98)"/>
<path d="M0 0 C6.6 0 13.2 0 20 0 C20 79.53 20 159.06 20 241 C6.8 241 -6.4 241 -20 241 C-20 234.07 -20 227.14 -20 220 C-13.4 220 -6.8 220 0 220 C0 147.4 0 74.8 0 0 Z " fill="#FD3564" transform="translate(766,721)"/>
<path d="M0 0 C6.93 0 13.86 0 21 0 C21 26.4 21 52.8 21 80 C27.27 80 33.54 80 40 80 C40 106.4 40 132.8 40 160 C33.4 160 26.8 160 20 160 C20 133.6 20 107.2 20 80 C13.4 80 6.8 80 0 80 C0 53.6 0 27.2 0 0 Z " fill="#FC3666" transform="translate(42,701)"/>
<path d="M0 0 C6.6 0 13.2 0 20 0 C20 26.4 20 52.8 20 80 C13.4 80 6.8 80 0 80 C0 53.6 0 27.2 0 0 Z " fill="#FC3665" transform="translate(786,178)"/>
<path d="M0 0 C6.27 0 12.54 0 19 0 C19 26.4 19 52.8 19 80 C12.73 80 6.46 80 0 80 C0 53.6 0 27.2 0 0 Z " fill="#FFFFFF" transform="translate(63,560)"/>
<path d="M0 0 C6.6 0 13.2 0 20 0 C20 20.13 20 40.26 20 61 C13.4 61 6.8 61 0 61 C0 40.87 0 20.74 0 0 Z " fill="#FEFCFC" transform="translate(766,660)"/>
<path d="M0 0 C6.27 0 12.54 0 19 0 C19 19.8 19 39.6 19 60 C12 61 12 61 0 61 C0 40.87 0 20.74 0 0 Z " fill="#FF3464" transform="translate(63,640)"/>
<path d="M0 0 C6.6 0 13.2 0 20 0 C20 13.2 20 26.4 20 40 C13.4 40.33 6.8 40.66 0 41 C0 27.47 0 13.94 0 0 Z " fill="#FCFCFD" transform="translate(62,861)"/>
<path d="M0 0 C13.2 0 26.4 0 40 0 C40 6.6 40 13.2 40 20 C26.8 20 13.6 20 0 20 C0 13.4 0 6.8 0 0 Z " fill="#FF3464" transform="translate(706,982)"/>
<path d="M0 0 C13.2 0 26.4 0 40 0 C40 6.6 40 13.2 40 20 C26.8 20 13.6 20 0 20 C0 13.4 0 6.8 0 0 Z " fill="#FDFDFD" transform="translate(726,962)"/>
<path d="M0 0 C6.27 0 12.54 0 19 0 C19 13.2 19 26.4 19 40 C12.73 40 6.46 40 0 40 C0 26.8 0 13.6 0 0 Z " fill="#FF3464" transform="translate(63,520)"/>
<path d="M0 0 C6.27 0 12.54 0 19 0 C19 13.2 19 26.4 19 40 C12.73 40 6.46 40 0 40 C0 26.8 0 13.6 0 0 Z " fill="#FFFDFE" transform="translate(63,480)"/>
<path d="M0 0 C13.2 0 26.4 0 40 0 C40 6.27 40 12.54 40 19 C26.8 19 13.6 19 0 19 C0 12.73 0 6.46 0 0 Z " fill="#FE3464" transform="translate(404,38)"/>
<path d="M0 0 C6.6 0 13.2 0 20 0 C20 6.6 20 13.2 20 20 C13.4 20 6.8 20 0 20 C0 13.4 0 6.8 0 0 Z " fill="#FEFCFD" transform="translate(686,982)"/>
</svg>
