<svg xmlns="http://www.w3.org/2000/svg" xmlns:xlink="http://www.w3.org/1999/xlink" width="80" zoomAndPan="magnify" viewBox="0 0 60 34.499999" height="46" preserveAspectRatio="xMidYMid meet" version="1.0"><defs><clipPath id="1fc4b3f206"><path d="M 9.617188 0 L 50.382812 0 L 50.382812 3.824219 L 9.617188 3.824219 Z M 9.617188 0 " clip-rule="nonzero"/></clipPath><clipPath id="e348eac03a"><path d="M 50.382812 3.824219 L 56.488281 3.824219 L 56.488281 7.671875 L 50.382812 7.671875 Z M 50.382812 3.824219 " clip-rule="nonzero"/></clipPath><clipPath id="7bd9d90534"><path d="M 56.488281 7.671875 L 59.570312 7.671875 L 59.570312 26.332031 L 56.488281 26.332031 Z M 56.488281 7.671875 " clip-rule="nonzero"/></clipPath><clipPath id="3e640ab470"><path d="M 50.382812 26.332031 L 56.488281 26.332031 L 56.488281 30.179688 L 50.382812 30.179688 Z M 50.382812 26.332031 " clip-rule="nonzero"/></clipPath><clipPath id="8f8770b912"><path d="M 9.558594 30.179688 L 50.324219 30.179688 L 50.324219 34.007812 L 9.558594 34.007812 Z M 9.558594 30.179688 " clip-rule="nonzero"/></clipPath><clipPath id="4352d57d61"><path d="M 3.511719 3.824219 L 9.617188 3.824219 L 9.617188 7.671875 L 3.511719 7.671875 Z M 3.511719 3.824219 " clip-rule="nonzero"/></clipPath><clipPath id="eb0bb2770e"><path d="M 0.429688 7.671875 L 3.511719 7.671875 L 3.511719 26.332031 L 0.429688 26.332031 Z M 0.429688 7.671875 " clip-rule="nonzero"/></clipPath><clipPath id="e5988f53ce"><path d="M 3.511719 26.332031 L 9.617188 26.332031 L 9.617188 30.179688 L 3.511719 30.179688 Z M 3.511719 26.332031 " clip-rule="nonzero"/></clipPath></defs><g clip-path="url(#1fc4b3f206)"><path fill="#70afc8" d="M 9.617188 -0.0234375 L 50.375 -0.0234375 L 50.375 3.824219 L 9.617188 3.824219 Z M 9.617188 -0.0234375 " fill-opacity="1" fill-rule="nonzero"/></g><g clip-path="url(#e348eac03a)"><path fill="#70afc8" d="M 50.382812 3.824219 L 56.484375 3.824219 L 56.484375 7.671875 L 50.382812 7.671875 Z M 50.382812 3.824219 " fill-opacity="1" fill-rule="nonzero"/></g><g clip-path="url(#7bd9d90534)"><path fill="#70afc8" d="M 56.488281 7.671875 L 59.570312 7.671875 L 59.570312 26.335938 L 56.488281 26.335938 Z M 56.488281 7.671875 " fill-opacity="1" fill-rule="nonzero"/></g><g clip-path="url(#3e640ab470)"><path fill="#70afc8" d="M 50.382812 26.332031 L 56.484375 26.332031 L 56.484375 30.179688 L 50.382812 30.179688 Z M 50.382812 26.332031 " fill-opacity="1" fill-rule="nonzero"/></g><g clip-path="url(#8f8770b912)"><path fill="#70afc8" d="M 9.558594 30.179688 L 50.316406 30.179688 L 50.316406 34.027344 L 9.558594 34.027344 Z M 9.558594 30.179688 " fill-opacity="1" fill-rule="nonzero"/></g><g clip-path="url(#4352d57d61)"><path fill="#70afc8" d="M 3.511719 3.824219 L 9.613281 3.824219 L 9.613281 7.671875 L 3.511719 7.671875 Z M 3.511719 3.824219 " fill-opacity="1" fill-rule="nonzero"/></g><g clip-path="url(#eb0bb2770e)"><path fill="#70afc8" d="M 0.429688 7.671875 L 3.511719 7.671875 L 3.511719 26.335938 L 0.429688 26.335938 Z M 0.429688 7.671875 " fill-opacity="1" fill-rule="nonzero"/></g><g clip-path="url(#e5988f53ce)"><path fill="#70afc8" d="M 3.511719 26.332031 L 9.613281 26.332031 L 9.613281 30.179688 L 3.511719 30.179688 Z M 3.511719 26.332031 " fill-opacity="1" fill-rule="nonzero"/></g></svg>