<svg xmlns="http://www.w3.org/2000/svg" xmlns:xlink="http://www.w3.org/1999/xlink" width="80" zoomAndPan="magnify" viewBox="0 0 60 30.000001" height="40" preserveAspectRatio="xMidYMid meet" version="1.0"><defs><clipPath id="0ee4c639bf"><path d="M 1 2.058594 L 59 2.058594 L 59 26.824219 L 1 26.824219 Z M 1 2.058594 " clip-rule="nonzero"/></clipPath><clipPath id="596ab14c7a"><path d="M 1 2.058594 L 59 2.058594 L 59 26.824219 L 1 26.824219 Z M 1 2.058594 " clip-rule="nonzero"/></clipPath><clipPath id="40ebbb197b"><path d="M 8.789062 6.695312 L 52.3125 6.695312 L 52.3125 22.300781 L 8.789062 22.300781 Z M 8.789062 6.695312 " clip-rule="nonzero"/></clipPath></defs><g clip-path="url(#0ee4c639bf)"><path fill="#ed7793" d="M 58.847656 7.074219 L 58.847656 6.96875 L 57.394531 6.96875 L 57.394531 5.566406 L 57.335938 5.566406 L 57.335938 5.460938 L 55.710938 5.460938 L 55.710938 3.894531 L 55.652344 3.894531 L 55.652344 3.792969 L 54.027344 3.792969 L 54.027344 2.226562 L 53.96875 2.226562 L 53.96875 2.121094 L 6.011719 2.121094 L 6.011719 3.792969 L 4.496094 3.792969 L 4.496094 5.414062 L 4.457031 5.414062 L 4.457031 5.460938 L 2.816406 5.460938 L 2.816406 6.96875 L 1.132812 6.96875 L 1.132812 21.847656 L 1.191406 21.847656 L 1.191406 21.953125 L 2.816406 21.953125 L 2.816406 23.515625 L 2.871094 23.515625 L 2.871094 23.621094 L 4.496094 23.621094 L 4.496094 25.023438 L 4.550781 25.023438 L 4.550781 25.128906 L 6.011719 25.128906 L 6.011719 26.695312 L 6.070312 26.695312 L 6.070312 26.800781 L 54.027344 26.800781 L 54.027344 25.128906 L 54.011719 25.128906 L 54.011719 25.023438 L 54.027344 25.023438 L 54.027344 25.128906 L 55.71875 25.128906 L 55.71875 23.625 L 57.398438 23.625 L 57.398438 21.957031 L 58.914062 21.957031 L 58.914062 7.074219 Z M 53.96875 23.546875 Z M 55.660156 21.847656 L 55.660156 21.800781 Z M 55.660156 21.847656 " fill-opacity="1" fill-rule="nonzero"/><path fill="#ed7793" d="M 57.351562 7.070312 L 57.351562 5.566406 L 55.660156 5.566406 L 55.660156 7.148438 L 55.609375 7.148438 L 55.609375 5.566406 L 55.660156 5.566406 L 55.660156 3.902344 L 53.972656 3.902344 L 53.972656 5.519531 L 53.953125 5.519531 L 53.953125 3.902344 L 53.972656 3.902344 L 53.972656 2.230469 L 6.015625 2.230469 L 6.015625 3.902344 L 4.5 3.902344 L 4.5 5.519531 L 4.460938 5.519531 L 4.460938 5.566406 L 2.816406 5.566406 L 2.816406 7.070312 L 1.132812 7.070312 L 1.132812 21.933594 L 2.820312 21.933594 L 2.820312 21.890625 L 2.878906 21.890625 L 2.878906 21.933594 L 2.820312 21.933594 L 2.820312 23.605469 L 4.507812 23.605469 L 4.507812 25.109375 L 6.015625 25.109375 L 6.015625 26.777344 L 53.984375 26.777344 L 53.984375 25.109375 L 53.964844 25.109375 L 53.964844 23.632812 L 53.984375 23.632812 L 53.984375 25.109375 L 55.671875 25.109375 L 55.671875 23.605469 L 57.359375 23.605469 L 57.359375 21.933594 L 58.875 21.933594 L 58.875 7.070312 Z M 55.609375 23.535156 L 55.609375 22.070312 L 55.660156 22.070312 L 55.660156 23.535156 Z M 57.175781 22.011719 L 55.667969 22.011719 L 55.667969 21.96875 L 57.175781 21.96875 Z M 57.175781 22.011719 " fill-opacity="1" fill-rule="nonzero"/></g><path fill="#ffffff" d="M 17.640625 8.746094 L 19.292969 8.746094 L 19.292969 10.398438 L 17.640625 10.398438 Z M 17.640625 8.746094 " fill-opacity="1" fill-rule="nonzero"/><path fill="#ffffff" d="M 14.332031 8.746094 L 15.988281 8.746094 L 15.988281 10.398438 L 14.332031 10.398438 Z M 14.332031 8.746094 " fill-opacity="1" fill-rule="nonzero"/><path fill="#ffffff" d="M 12.679688 7.09375 L 11.027344 7.09375 L 11.027344 20.320312 L 12.679688 20.320312 L 12.679688 8.742188 L 14.332031 8.742188 L 14.332031 7.09375 Z M 12.679688 7.09375 " fill-opacity="1" fill-rule="nonzero"/><path fill="#ffffff" d="M 19.292969 7.09375 L 19.292969 8.742188 L 20.945312 8.742188 L 20.945312 20.320312 L 22.597656 20.320312 L 22.597656 7.09375 Z M 19.292969 7.09375 " fill-opacity="1" fill-rule="nonzero"/><path fill="#ffffff" d="M 15.988281 12.050781 L 15.988281 13.703125 L 17.640625 13.703125 L 17.640625 10.398438 L 15.988281 10.398438 Z M 15.988281 12.050781 " fill-opacity="1" fill-rule="nonzero"/><path fill="#ffffff" d="M 45.746094 18.667969 L 44.09375 18.667969 L 44.09375 20.320312 L 49.054688 20.320312 L 49.054688 18.667969 Z M 45.746094 18.667969 " fill-opacity="1" fill-rule="nonzero"/><path fill="#ffffff" d="M 49.054688 7.09375 L 49.054688 18.667969 L 50.707031 18.667969 L 50.707031 7.09375 Z M 49.054688 7.09375 " fill-opacity="1" fill-rule="nonzero"/><path fill="#ffffff" d="M 27.558594 7.09375 L 24.253906 7.09375 L 24.253906 20.320312 L 30.867188 20.320312 L 30.867188 18.667969 L 25.90625 18.667969 L 25.90625 13.703125 L 29.214844 13.703125 L 29.214844 12.050781 L 25.90625 12.050781 L 25.90625 8.742188 L 30.867188 8.742188 L 30.867188 7.09375 Z M 27.558594 7.09375 " fill-opacity="1" fill-rule="nonzero"/><path fill="#ffffff" d="M 44.09375 15.359375 L 44.09375 7.09375 L 42.441406 7.09375 L 42.441406 18.667969 L 44.09375 18.667969 Z M 44.09375 15.359375 " fill-opacity="1" fill-rule="nonzero"/><path fill="#ffffff" d="M 39.132812 8.742188 L 39.132812 12.050781 L 37.480469 12.050781 L 37.480469 10.398438 L 35.824219 10.398438 L 35.824219 8.742188 L 34.171875 8.742188 L 34.171875 7.09375 L 32.519531 7.09375 L 32.519531 20.320312 L 34.171875 20.320312 L 34.171875 12.050781 L 35.824219 12.050781 L 35.824219 13.703125 L 37.480469 13.703125 L 37.480469 15.359375 L 39.132812 15.359375 L 39.132812 20.320312 L 40.785156 20.320312 L 40.785156 7.09375 L 39.132812 7.09375 Z M 39.132812 8.742188 " fill-opacity="1" fill-rule="nonzero"/><path fill="#ff3464" d="M 39.160156 10.398438 L 39.160156 7.066406 L 37.453125 7.066406 L 37.453125 12.078125 L 39.160156 12.078125 Z M 39.160156 10.398438 " fill-opacity="1" fill-rule="nonzero"/><path fill="#ff3464" d="M 35.796875 15.386719 L 37.453125 15.386719 L 37.453125 20.347656 L 39.160156 20.347656 L 39.160156 15.332031 L 37.503906 15.332031 L 37.503906 13.679688 L 35.851562 13.679688 L 35.851562 12.023438 L 34.144531 12.023438 L 34.144531 13.730469 L 35.796875 13.730469 Z M 35.796875 15.386719 " fill-opacity="1" fill-rule="nonzero"/><path fill="#ff3464" d="M 49.078125 17.011719 L 49.078125 7.066406 L 47.371094 7.066406 L 47.371094 18.691406 L 49.078125 18.691406 Z M 49.078125 17.011719 " fill-opacity="1" fill-rule="nonzero"/><path fill="#ff3464" d="M 32.546875 18.667969 L 32.546875 7.066406 L 30.839844 7.066406 L 30.839844 20.347656 L 32.546875 20.347656 Z M 32.546875 18.667969 " fill-opacity="1" fill-rule="nonzero"/><path fill="#ff3464" d="M 42.414062 20.347656 L 44.121094 20.347656 L 44.121094 18.640625 L 42.464844 18.640625 L 42.464844 7.066406 L 40.761719 7.066406 L 40.761719 18.691406 L 42.414062 18.691406 Z M 42.414062 20.347656 " fill-opacity="1" fill-rule="nonzero"/><path fill="#ff3464" d="M 11.050781 18.667969 L 11.050781 7.066406 L 9.347656 7.066406 L 9.347656 20.347656 L 11.050781 20.347656 Z M 11.050781 18.667969 " fill-opacity="1" fill-rule="nonzero"/><path fill="#ff3464" d="M 55.757812 7.152344 L 55.757812 7.066406 L 55.652344 7.066406 L 55.652344 21.945312 L 54 21.945312 L 54 23.597656 L 6.097656 23.597656 L 6.097656 25.246094 L 54.050781 25.246094 L 54.050781 23.6875 L 54.074219 23.6875 L 54.074219 23.59375 L 56.113281 23.59375 L 56.113281 22.257812 L 57.273438 22.257812 L 57.273438 7.152344 Z M 55.757812 7.152344 " fill-opacity="1" fill-rule="nonzero"/><path fill="#ff3464" d="M 14.304688 12.050781 L 14.304688 13.730469 L 16.011719 13.730469 L 16.011719 10.371094 L 14.359375 10.371094 L 14.359375 8.71875 L 12.652344 8.71875 L 12.652344 10.425781 L 14.304688 10.425781 Z M 14.304688 12.050781 " fill-opacity="1" fill-rule="nonzero"/><path fill="#ff3464" d="M 20.972656 18.667969 L 20.972656 8.71875 L 19.265625 8.71875 L 19.265625 20.347656 L 20.972656 20.347656 Z M 20.972656 18.667969 " fill-opacity="1" fill-rule="nonzero"/><path fill="#ff3464" d="M 24.277344 18.667969 L 24.277344 7.066406 L 22.570312 7.066406 L 22.570312 20.347656 L 24.277344 20.347656 Z M 24.277344 18.667969 " fill-opacity="1" fill-rule="nonzero"/><path fill="#ffb6c1" d="M 2.765625 8.695312 L 2.765625 8.742188 L 4.414062 8.742188 L 4.414062 7.175781 L 2.765625 7.175781 Z M 2.765625 8.695312 " fill-opacity="1" fill-rule="nonzero"/><path fill="#ffb6c1" d="M 52.378906 3.804688 L 6.140625 3.804688 L 6.140625 5.488281 L 4.449219 5.488281 L 4.449219 7.09375 L 7.71875 7.09375 L 7.71875 5.441406 L 54.035156 5.441406 L 54.035156 3.804688 Z M 52.378906 3.804688 " fill-opacity="1" fill-rule="nonzero"/><path fill="#ffb6c1" d="M 54.050781 5.488281 L 54.050781 5.441406 L 54.035156 5.441406 L 54.035156 7.09375 L 55.6875 7.09375 L 55.6875 5.488281 Z M 54.050781 5.488281 " fill-opacity="1" fill-rule="nonzero"/><g clip-path="url(#596ab14c7a)"><path fill="#444444" d="M 57.464844 6.949219 L 57.464844 5.429688 L 55.777344 5.429688 L 55.777344 3.742188 L 54.085938 3.742188 L 54.085938 2.058594 L 5.910156 2.058594 L 5.910156 3.746094 L 4.394531 3.746094 L 4.394531 5.4375 L 2.703125 5.4375 L 2.703125 6.949219 L 1.019531 6.949219 L 1.019531 22.074219 L 2.707031 22.074219 L 2.707031 23.765625 L 4.398438 23.765625 L 4.398438 25.28125 L 5.910156 25.28125 L 5.910156 26.96875 L 54.089844 26.96875 L 54.089844 25.28125 L 55.78125 25.28125 L 55.78125 23.761719 L 57.46875 23.761719 L 57.46875 22.074219 L 58.976562 22.074219 L 58.976562 6.949219 Z M 57.175781 8.695312 L 57.175781 21.957031 L 55.660156 21.957031 L 55.660156 23.476562 L 53.972656 23.476562 L 53.972656 25.164062 L 6.195312 25.164062 L 6.195312 23.476562 L 4.507812 23.476562 L 4.507812 21.957031 L 2.820312 21.957031 L 2.820312 7.234375 L 4.507812 7.234375 L 4.507812 5.546875 L 6.195312 5.546875 L 6.195312 3.859375 L 53.972656 3.859375 L 53.972656 5.546875 L 55.664062 5.546875 L 55.664062 7.234375 L 57.179688 7.234375 Z M 57.175781 8.695312 " fill-opacity="1" fill-rule="nonzero"/></g><g clip-path="url(#40ebbb197b)"><path fill="#ed7793" d="M 8.789062 6.695312 L 52.3125 6.695312 L 52.3125 22.300781 L 8.789062 22.300781 Z M 8.789062 6.695312 " fill-opacity="1" fill-rule="nonzero"/></g></svg>