<svg xmlns="http://www.w3.org/2000/svg" xmlns:xlink="http://www.w3.org/1999/xlink" width="613" zoomAndPan="magnify" viewBox="0 0 459.75 545.249983" height="727" preserveAspectRatio="xMidYMid meet" version="1.0"><defs><g/><clipPath id="ab1f439222"><path d="M 24.871094 0 L 434.628906 0 L 434.628906 26.234375 L 24.871094 26.234375 Z M 24.871094 0 " clip-rule="nonzero"/></clipPath><clipPath id="7fc70b5ca3"><path d="M 3.128906 26.238281 L 24.863281 26.238281 L 24.863281 520.804688 L 3.128906 520.804688 Z M 3.128906 26.238281 " clip-rule="nonzero"/></clipPath><clipPath id="a7592c9ac3"><path d="M 434.621094 26.238281 L 456.355469 26.238281 L 456.355469 520.804688 L 434.621094 520.804688 Z M 434.621094 26.238281 " clip-rule="nonzero"/></clipPath><clipPath id="b1556a02b8"><path d="M 24.871094 518.269531 L 434.628906 518.269531 L 434.628906 544.5 L 24.871094 544.5 Z M 24.871094 518.269531 " clip-rule="nonzero"/></clipPath><clipPath id="d502cc3226"><path d="M 44.570312 26.179688 L 414.929688 26.179688 L 414.929688 49.886719 L 44.570312 49.886719 Z M 44.570312 26.179688 " clip-rule="nonzero"/></clipPath><clipPath id="f93e7bdbd5"><path d="M 24.917969 49.890625 L 44.5625 49.890625 L 44.5625 496.902344 L 24.917969 496.902344 Z M 24.917969 49.890625 " clip-rule="nonzero"/></clipPath><clipPath id="289c46b9fa"><path d="M 414.921875 49.890625 L 434.566406 49.890625 L 434.566406 496.902344 L 414.921875 496.902344 Z M 414.921875 49.890625 " clip-rule="nonzero"/></clipPath><clipPath id="1deba6a0d7"><path d="M 44.570312 494.613281 L 414.929688 494.613281 L 414.929688 518.324219 L 44.570312 518.324219 Z M 44.570312 494.613281 " clip-rule="nonzero"/></clipPath><clipPath id="53f0e0ba82"><path d="M 42.320312 48.738281 L 416.324219 48.738281 L 416.324219 496 L 42.320312 496 Z M 42.320312 48.738281 " clip-rule="nonzero"/></clipPath><clipPath id="dbc52d5972"><path d="M 95.339844 171.644531 L 190.652344 171.644531 L 190.652344 180.640625 L 95.339844 180.640625 Z M 95.339844 171.644531 " clip-rule="nonzero"/></clipPath><clipPath id="02da9d147c"><path d="M 190.652344 180.640625 L 204.925781 180.640625 L 204.925781 189.636719 L 190.652344 189.636719 Z M 190.652344 180.640625 " clip-rule="nonzero"/></clipPath><clipPath id="b94f10e30f"><path d="M 204.925781 189.636719 L 212.136719 189.636719 L 212.136719 233.265625 L 204.925781 233.265625 Z M 204.925781 189.636719 " clip-rule="nonzero"/></clipPath><clipPath id="6e293b4301"><path d="M 190.652344 233.265625 L 204.925781 233.265625 L 204.925781 242.261719 L 190.652344 242.261719 Z M 190.652344 233.265625 " clip-rule="nonzero"/></clipPath><clipPath id="22f53978c7"><path d="M 95.199219 242.261719 L 190.511719 242.261719 L 190.511719 251.257812 L 95.199219 251.257812 Z M 95.199219 242.261719 " clip-rule="nonzero"/></clipPath><clipPath id="a09a25ed61"><path d="M 81.066406 180.640625 L 95.339844 180.640625 L 95.339844 189.636719 L 81.066406 189.636719 Z M 81.066406 180.640625 " clip-rule="nonzero"/></clipPath><clipPath id="b92684089e"><path d="M 73.855469 189.636719 L 81.066406 189.636719 L 81.066406 233.265625 L 73.855469 233.265625 Z M 73.855469 189.636719 " clip-rule="nonzero"/></clipPath><clipPath id="5b4710762f"><path d="M 81.066406 233.265625 L 95.339844 233.265625 L 95.339844 242.261719 L 81.066406 242.261719 Z M 81.066406 233.265625 " clip-rule="nonzero"/></clipPath><clipPath id="5910b3b5e5"><path d="M 272.5625 171.644531 L 367.871094 171.644531 L 367.871094 180.640625 L 272.5625 180.640625 Z M 272.5625 171.644531 " clip-rule="nonzero"/></clipPath><clipPath id="c3b8cc00e5"><path d="M 367.871094 180.640625 L 382.144531 180.640625 L 382.144531 189.636719 L 367.871094 189.636719 Z M 367.871094 180.640625 " clip-rule="nonzero"/></clipPath><clipPath id="c83bc9e7db"><path d="M 382.144531 189.636719 L 389.359375 189.636719 L 389.359375 233.265625 L 382.144531 233.265625 Z M 382.144531 189.636719 " clip-rule="nonzero"/></clipPath><clipPath id="26d5756bb2"><path d="M 367.871094 233.265625 L 382.144531 233.265625 L 382.144531 242.261719 L 367.871094 242.261719 Z M 367.871094 233.265625 " clip-rule="nonzero"/></clipPath><clipPath id="02666637bb"><path d="M 272.421875 242.261719 L 367.734375 242.261719 L 367.734375 251.257812 L 272.421875 251.257812 Z M 272.421875 242.261719 " clip-rule="nonzero"/></clipPath><clipPath id="a14e6e6347"><path d="M 258.289062 180.640625 L 272.5625 180.640625 L 272.5625 189.636719 L 258.289062 189.636719 Z M 258.289062 180.640625 " clip-rule="nonzero"/></clipPath><clipPath id="07029cba95"><path d="M 251.074219 189.636719 L 258.289062 189.636719 L 258.289062 233.265625 L 251.074219 233.265625 Z M 251.074219 189.636719 " clip-rule="nonzero"/></clipPath><clipPath id="55d8a7da18"><path d="M 258.289062 233.265625 L 272.5625 233.265625 L 272.5625 242.261719 L 258.289062 242.261719 Z M 258.289062 233.265625 " clip-rule="nonzero"/></clipPath><clipPath id="8ccdf03e77"><path d="M 95.339844 284.007812 L 190.652344 284.007812 L 190.652344 293.003906 L 95.339844 293.003906 Z M 95.339844 284.007812 " clip-rule="nonzero"/></clipPath><clipPath id="89e989d232"><path d="M 190.652344 293.003906 L 204.925781 293.003906 L 204.925781 302 L 190.652344 302 Z M 190.652344 293.003906 " clip-rule="nonzero"/></clipPath><clipPath id="c4ac310a3b"><path d="M 204.925781 302 L 212.136719 302 L 212.136719 345.632812 L 204.925781 345.632812 Z M 204.925781 302 " clip-rule="nonzero"/></clipPath><clipPath id="c10041f394"><path d="M 190.652344 345.632812 L 204.925781 345.632812 L 204.925781 354.625 L 190.652344 354.625 Z M 190.652344 345.632812 " clip-rule="nonzero"/></clipPath><clipPath id="cbd189926b"><path d="M 95.199219 354.625 L 190.511719 354.625 L 190.511719 363.621094 L 95.199219 363.621094 Z M 95.199219 354.625 " clip-rule="nonzero"/></clipPath><clipPath id="aa2ac33858"><path d="M 81.066406 293.003906 L 95.339844 293.003906 L 95.339844 302 L 81.066406 302 Z M 81.066406 293.003906 " clip-rule="nonzero"/></clipPath><clipPath id="cf6566a5cf"><path d="M 73.855469 302 L 81.066406 302 L 81.066406 345.632812 L 73.855469 345.632812 Z M 73.855469 302 " clip-rule="nonzero"/></clipPath><clipPath id="0bf2431679"><path d="M 81.066406 345.632812 L 95.339844 345.632812 L 95.339844 354.625 L 81.066406 354.625 Z M 81.066406 345.632812 " clip-rule="nonzero"/></clipPath><clipPath id="75e6d85044"><path d="M 272.5625 288.140625 L 367.871094 288.140625 L 367.871094 297.136719 L 272.5625 297.136719 Z M 272.5625 288.140625 " clip-rule="nonzero"/></clipPath><clipPath id="8982c52f63"><path d="M 367.871094 297.136719 L 382.144531 297.136719 L 382.144531 306.132812 L 367.871094 306.132812 Z M 367.871094 297.136719 " clip-rule="nonzero"/></clipPath><clipPath id="a58d916901"><path d="M 382.144531 306.132812 L 389.359375 306.132812 L 389.359375 349.761719 L 382.144531 349.761719 Z M 382.144531 306.132812 " clip-rule="nonzero"/></clipPath><clipPath id="01cb4f0d22"><path d="M 367.871094 349.761719 L 382.144531 349.761719 L 382.144531 358.757812 L 367.871094 358.757812 Z M 367.871094 349.761719 " clip-rule="nonzero"/></clipPath><clipPath id="c34657ad35"><path d="M 272.421875 358.757812 L 367.734375 358.757812 L 367.734375 367.753906 L 272.421875 367.753906 Z M 272.421875 358.757812 " clip-rule="nonzero"/></clipPath><clipPath id="b421a1548c"><path d="M 258.289062 297.136719 L 272.5625 297.136719 L 272.5625 306.132812 L 258.289062 306.132812 Z M 258.289062 297.136719 " clip-rule="nonzero"/></clipPath><clipPath id="600df3fcc9"><path d="M 251.074219 306.132812 L 258.289062 306.132812 L 258.289062 349.761719 L 251.074219 349.761719 Z M 251.074219 306.132812 " clip-rule="nonzero"/></clipPath><clipPath id="8cbf2a11e6"><path d="M 258.289062 349.761719 L 272.5625 349.761719 L 272.5625 358.757812 L 258.289062 358.757812 Z M 258.289062 349.761719 " clip-rule="nonzero"/></clipPath><clipPath id="64ae5cb31e"><path d="M 91 194 L 117 194 L 117 218 L 91 218 Z M 91 194 " clip-rule="nonzero"/></clipPath><clipPath id="5daabe7b66"><path d="M 91.175781 195.496094 L 115.871094 194.367188 L 116.882812 216.550781 L 92.1875 217.675781 Z M 91.175781 195.496094 " clip-rule="nonzero"/></clipPath><clipPath id="1cf1ae45a7"><path d="M 93.421875 195.390625 L 113.582031 194.472656 C 114.175781 194.445312 114.757812 194.65625 115.199219 195.058594 C 115.640625 195.460938 115.902344 196.019531 115.929688 196.613281 L 116.734375 214.308594 C 116.761719 214.902344 116.550781 215.484375 116.152344 215.925781 C 115.75 216.363281 115.1875 216.628906 114.59375 216.65625 L 94.433594 217.574219 C 93.835938 217.601562 93.253906 217.390625 92.816406 216.988281 C 92.375 216.585938 92.113281 216.027344 92.085938 215.433594 L 91.277344 197.738281 C 91.25 197.144531 91.460938 196.5625 91.863281 196.121094 C 92.265625 195.683594 92.824219 195.417969 93.421875 195.390625 Z M 93.421875 195.390625 " clip-rule="nonzero"/></clipPath><clipPath id="067d5ffc00"><path d="M 91 195 L 116 195 L 116 216 L 91 216 Z M 91 195 " clip-rule="nonzero"/></clipPath><clipPath id="3e840a397f"><path d="M 91.863281 196.296875 L 114.523438 195.261719 L 115.414062 214.792969 L 92.757812 215.828125 Z M 91.863281 196.296875 " clip-rule="nonzero"/></clipPath><clipPath id="cd886bebfc"><path d="M 94.109375 196.195312 L 112.210938 195.367188 C 112.808594 195.339844 113.390625 195.550781 113.828125 195.953125 C 114.269531 196.355469 114.53125 196.914062 114.558594 197.511719 L 115.246094 212.554688 C 115.273438 213.148438 115.0625 213.730469 114.660156 214.171875 C 114.257812 214.609375 113.699219 214.871094 113.101562 214.898438 L 95 215.726562 C 94.40625 215.753906 93.824219 215.542969 93.382812 215.140625 C 92.941406 214.738281 92.679688 214.179688 92.652344 213.582031 L 91.96875 198.542969 C 91.941406 197.945312 92.152344 197.363281 92.550781 196.925781 C 92.953125 196.484375 93.515625 196.222656 94.109375 196.195312 Z M 94.109375 196.195312 " clip-rule="nonzero"/></clipPath><clipPath id="46313a0636"><path d="M 102 204 L 130 204 L 130 230 L 102 230 Z M 102 204 " clip-rule="nonzero"/></clipPath><clipPath id="fdb24db896"><path d="M 105.527344 204.46875 L 130.023438 207.785156 L 127.042969 229.789062 L 102.546875 226.472656 Z M 105.527344 204.46875 " clip-rule="nonzero"/></clipPath><clipPath id="260972a172"><path d="M 107.753906 204.769531 L 127.753906 207.480469 C 128.34375 207.558594 128.878906 207.871094 129.238281 208.34375 C 129.601562 208.816406 129.757812 209.417969 129.679688 210.007812 L 127.300781 227.558594 C 127.222656 228.148438 126.910156 228.683594 126.4375 229.042969 C 125.960938 229.40625 125.363281 229.5625 124.773438 229.484375 L 104.773438 226.773438 C 104.183594 226.695312 103.648438 226.382812 103.289062 225.910156 C 102.925781 225.433594 102.769531 224.835938 102.847656 224.246094 L 105.226562 206.695312 C 105.304688 206.105469 105.617188 205.570312 106.089844 205.210938 C 106.566406 204.847656 107.164062 204.691406 107.753906 204.769531 Z M 107.753906 204.769531 " clip-rule="nonzero"/></clipPath><clipPath id="2ad4976035"><path d="M 103 205 L 129 205 L 129 228 L 103 228 Z M 103 205 " clip-rule="nonzero"/></clipPath><clipPath id="67614c9f19"><path d="M 106.058594 205.382812 L 128.539062 208.425781 L 125.914062 227.800781 L 103.4375 224.757812 Z M 106.058594 205.382812 " clip-rule="nonzero"/></clipPath><clipPath id="2f43058ae3"><path d="M 108.289062 205.683594 L 126.246094 208.113281 C 126.835938 208.195312 127.371094 208.503906 127.730469 208.980469 C 128.09375 209.453125 128.25 210.050781 128.167969 210.640625 L 126.148438 225.5625 C 126.070312 226.15625 125.757812 226.6875 125.285156 227.050781 C 124.808594 227.410156 124.210938 227.570312 123.621094 227.488281 L 105.664062 225.058594 C 105.074219 224.976562 104.539062 224.667969 104.175781 224.191406 C 103.816406 223.71875 103.660156 223.121094 103.738281 222.53125 L 105.757812 207.609375 C 105.839844 207.015625 106.148438 206.484375 106.625 206.121094 C 107.097656 205.761719 107.695312 205.601562 108.289062 205.683594 Z M 108.289062 205.683594 " clip-rule="nonzero"/></clipPath><clipPath id="61df82bcfb"><path d="M 265 194 L 291 194 L 291 218 L 265 218 Z M 265 194 " clip-rule="nonzero"/></clipPath><clipPath id="59ab971ec6"><path d="M 265.082031 195.496094 L 289.777344 194.367188 L 290.789062 216.550781 L 266.09375 217.675781 Z M 265.082031 195.496094 " clip-rule="nonzero"/></clipPath><clipPath id="d9d9206359"><path d="M 267.324219 195.390625 L 287.488281 194.472656 C 288.082031 194.445312 288.664062 194.65625 289.105469 195.058594 C 289.542969 195.460938 289.808594 196.019531 289.835938 196.613281 L 290.640625 214.308594 C 290.667969 214.902344 290.457031 215.484375 290.054688 215.925781 C 289.65625 216.363281 289.09375 216.628906 288.5 216.65625 L 268.339844 217.574219 C 267.742188 217.601562 267.160156 217.390625 266.722656 216.988281 C 266.28125 216.585938 266.019531 216.027344 265.992188 215.433594 L 265.183594 197.738281 C 265.15625 197.144531 265.367188 196.5625 265.769531 196.121094 C 266.171875 195.683594 266.730469 195.417969 267.324219 195.390625 Z M 267.324219 195.390625 " clip-rule="nonzero"/></clipPath><clipPath id="688a0db01a"><path d="M 265 195 L 290 195 L 290 216 L 265 216 Z M 265 195 " clip-rule="nonzero"/></clipPath><clipPath id="9eec19982b"><path d="M 265.769531 196.296875 L 288.429688 195.261719 L 289.320312 214.792969 L 266.660156 215.828125 Z M 265.769531 196.296875 " clip-rule="nonzero"/></clipPath><clipPath id="0a25d26fc7"><path d="M 268.015625 196.195312 L 286.117188 195.367188 C 286.714844 195.339844 287.292969 195.550781 287.734375 195.953125 C 288.175781 196.355469 288.4375 196.914062 288.464844 197.511719 L 289.152344 212.554688 C 289.179688 213.148438 288.96875 213.730469 288.566406 214.171875 C 288.164062 214.609375 287.605469 214.871094 287.007812 214.898438 L 268.90625 215.726562 C 268.3125 215.753906 267.730469 215.542969 267.289062 215.140625 C 266.847656 214.738281 266.585938 214.179688 266.558594 213.582031 L 265.871094 198.542969 C 265.84375 197.945312 266.054688 197.363281 266.457031 196.925781 C 266.859375 196.484375 267.417969 196.222656 268.015625 196.195312 Z M 268.015625 196.195312 " clip-rule="nonzero"/></clipPath><clipPath id="66436e66f9"><path d="M 276 204 L 304 204 L 304 230 L 276 230 Z M 276 204 " clip-rule="nonzero"/></clipPath><clipPath id="3ae8d8a2ec"><path d="M 279.433594 204.46875 L 303.929688 207.785156 L 300.949219 229.789062 L 276.453125 226.472656 Z M 279.433594 204.46875 " clip-rule="nonzero"/></clipPath><clipPath id="281837d772"><path d="M 281.660156 204.769531 L 301.660156 207.480469 C 302.25 207.558594 302.785156 207.871094 303.144531 208.34375 C 303.503906 208.816406 303.664062 209.417969 303.582031 210.007812 L 301.207031 227.558594 C 301.128906 228.148438 300.816406 228.683594 300.34375 229.042969 C 299.867188 229.40625 299.269531 229.5625 298.679688 229.484375 L 278.679688 226.773438 C 278.089844 226.695312 277.554688 226.382812 277.191406 225.910156 C 276.832031 225.433594 276.675781 224.835938 276.753906 224.246094 L 279.128906 206.695312 C 279.210938 206.105469 279.523438 205.570312 279.996094 205.210938 C 280.46875 204.847656 281.066406 204.691406 281.660156 204.769531 Z M 281.660156 204.769531 " clip-rule="nonzero"/></clipPath><clipPath id="5b6028c092"><path d="M 277 205 L 303 205 L 303 228 L 277 228 Z M 277 205 " clip-rule="nonzero"/></clipPath><clipPath id="07ef89faee"><path d="M 279.964844 205.382812 L 302.445312 208.425781 L 299.820312 227.800781 L 277.34375 224.757812 Z M 279.964844 205.382812 " clip-rule="nonzero"/></clipPath><clipPath id="20df21b9c9"><path d="M 282.191406 205.683594 L 300.148438 208.113281 C 300.742188 208.195312 301.273438 208.503906 301.636719 208.980469 C 301.996094 209.453125 302.15625 210.050781 302.074219 210.640625 L 300.054688 225.5625 C 299.976562 226.15625 299.664062 226.6875 299.191406 227.050781 C 298.714844 227.410156 298.117188 227.570312 297.527344 227.488281 L 279.570312 225.058594 C 278.980469 224.976562 278.445312 224.667969 278.082031 224.191406 C 277.722656 223.71875 277.5625 223.121094 277.644531 222.53125 L 279.664062 207.609375 C 279.746094 207.015625 280.054688 206.484375 280.53125 206.121094 C 281.003906 205.761719 281.601562 205.601562 282.191406 205.683594 Z M 282.191406 205.683594 " clip-rule="nonzero"/></clipPath><clipPath id="28d5f2853a"><path d="M 87 305 L 114 305 L 114 329 L 87 329 Z M 87 305 " clip-rule="nonzero"/></clipPath><clipPath id="fb1af50170"><path d="M 87.859375 306.765625 L 112.554688 305.640625 L 113.566406 327.820312 L 88.871094 328.949219 Z M 87.859375 306.765625 " clip-rule="nonzero"/></clipPath><clipPath id="ce998dd193"><path d="M 90.105469 306.664062 L 110.265625 305.746094 C 110.859375 305.71875 111.441406 305.925781 111.882812 306.328125 C 112.324219 306.730469 112.585938 307.292969 112.613281 307.886719 L 113.417969 325.578125 C 113.445312 326.175781 113.234375 326.757812 112.835938 327.195312 C 112.433594 327.636719 111.871094 327.898438 111.277344 327.925781 L 91.117188 328.847656 C 90.519531 328.871094 89.9375 328.664062 89.5 328.261719 C 89.058594 327.859375 88.796875 327.300781 88.769531 326.703125 L 87.960938 309.011719 C 87.933594 308.414062 88.144531 307.835938 88.546875 307.394531 C 88.949219 306.953125 89.507812 306.691406 90.105469 306.664062 Z M 90.105469 306.664062 " clip-rule="nonzero"/></clipPath><clipPath id="daa56b18ac"><path d="M 88 306 L 112 306 L 112 327 L 88 327 Z M 88 306 " clip-rule="nonzero"/></clipPath><clipPath id="b8250915ad"><path d="M 88.546875 307.566406 L 111.207031 306.535156 L 112.097656 326.066406 L 89.4375 327.101562 Z M 88.546875 307.566406 " clip-rule="nonzero"/></clipPath><clipPath id="605fe1f6ed"><path d="M 90.792969 307.464844 L 108.894531 306.640625 C 109.492188 306.613281 110.074219 306.824219 110.511719 307.226562 C 110.953125 307.625 111.214844 308.1875 111.242188 308.78125 L 111.929688 323.824219 C 111.957031 324.417969 111.746094 325 111.34375 325.441406 C 110.941406 325.882812 110.382812 326.144531 109.785156 326.171875 L 91.683594 326.996094 C 91.089844 327.023438 90.507812 326.8125 90.066406 326.414062 C 89.625 326.011719 89.363281 325.449219 89.335938 324.855469 L 88.652344 309.8125 C 88.625 309.21875 88.832031 308.636719 89.234375 308.195312 C 89.636719 307.753906 90.199219 307.492188 90.792969 307.464844 Z M 90.792969 307.464844 " clip-rule="nonzero"/></clipPath><clipPath id="b3ddec2a22"><path d="M 99 316 L 127 316 L 127 341 L 99 341 Z M 99 316 " clip-rule="nonzero"/></clipPath><clipPath id="074a11c0c3"><path d="M 102.210938 315.742188 L 126.707031 319.058594 L 123.726562 341.0625 L 99.230469 337.746094 Z M 102.210938 315.742188 " clip-rule="nonzero"/></clipPath><clipPath id="c9b9708b41"><path d="M 104.4375 316.042969 L 124.4375 318.75 C 125.027344 318.832031 125.5625 319.140625 125.921875 319.617188 C 126.285156 320.089844 126.441406 320.6875 126.363281 321.277344 L 123.984375 338.828125 C 123.90625 339.417969 123.59375 339.953125 123.121094 340.316406 C 122.644531 340.675781 122.046875 340.835938 121.457031 340.753906 L 101.457031 338.046875 C 100.867188 337.964844 100.332031 337.65625 99.972656 337.179688 C 99.609375 336.707031 99.453125 336.109375 99.53125 335.519531 L 101.910156 317.96875 C 101.988281 317.375 102.300781 316.84375 102.773438 316.480469 C 103.246094 316.121094 103.847656 315.960938 104.4375 316.042969 Z M 104.4375 316.042969 " clip-rule="nonzero"/></clipPath><clipPath id="8d391c06a1"><path d="M 100 316 L 125 316 L 125 339 L 100 339 Z M 100 316 " clip-rule="nonzero"/></clipPath><clipPath id="912e6e8aec"><path d="M 102.742188 316.652344 L 125.222656 319.695312 L 122.597656 339.070312 L 100.121094 336.027344 Z M 102.742188 316.652344 " clip-rule="nonzero"/></clipPath><clipPath id="959c523af2"><path d="M 104.96875 316.953125 L 122.929688 319.386719 C 123.519531 319.464844 124.054688 319.777344 124.414062 320.25 C 124.773438 320.726562 124.933594 321.324219 124.851562 321.914062 L 122.832031 336.835938 C 122.753906 337.425781 122.441406 337.960938 121.96875 338.320312 C 121.492188 338.683594 120.894531 338.839844 120.304688 338.761719 L 102.347656 336.328125 C 101.757812 336.25 101.222656 335.9375 100.859375 335.464844 C 100.5 334.988281 100.34375 334.390625 100.421875 333.800781 L 102.441406 318.878906 C 102.523438 318.289062 102.832031 317.753906 103.308594 317.394531 C 103.78125 317.03125 104.378906 316.875 104.96875 316.953125 Z M 104.96875 316.953125 " clip-rule="nonzero"/></clipPath><clipPath id="34ba8fa9b3"><path d="M 265 309 L 291 309 L 291 333 L 265 333 Z M 265 309 " clip-rule="nonzero"/></clipPath><clipPath id="7443058110"><path d="M 265.082031 310.898438 L 289.777344 309.773438 L 290.789062 331.953125 L 266.09375 333.082031 Z M 265.082031 310.898438 " clip-rule="nonzero"/></clipPath><clipPath id="70b2f63ce4"><path d="M 267.324219 310.796875 L 287.488281 309.875 C 288.082031 309.847656 288.664062 310.058594 289.105469 310.460938 C 289.542969 310.863281 289.808594 311.421875 289.835938 312.019531 L 290.640625 329.710938 C 290.667969 330.308594 290.457031 330.886719 290.054688 331.328125 C 289.65625 331.769531 289.09375 332.03125 288.5 332.058594 L 268.339844 332.976562 C 267.742188 333.003906 267.160156 332.792969 266.722656 332.394531 C 266.28125 331.992188 266.019531 331.429688 265.992188 330.835938 L 265.183594 313.144531 C 265.15625 312.546875 265.367188 311.964844 265.769531 311.527344 C 266.171875 311.085938 266.730469 310.824219 267.324219 310.796875 Z M 267.324219 310.796875 " clip-rule="nonzero"/></clipPath><clipPath id="cf55fbd06e"><path d="M 265 310 L 290 310 L 290 332 L 265 332 Z M 265 310 " clip-rule="nonzero"/></clipPath><clipPath id="662edcd368"><path d="M 265.769531 311.699219 L 288.429688 310.667969 L 289.320312 330.199219 L 266.660156 331.230469 Z M 265.769531 311.699219 " clip-rule="nonzero"/></clipPath><clipPath id="dab6ef769d"><path d="M 268.015625 311.597656 L 286.117188 310.773438 C 286.714844 310.746094 287.292969 310.957031 287.734375 311.355469 C 288.175781 311.757812 288.4375 312.320312 288.464844 312.914062 L 289.152344 327.957031 C 289.179688 328.550781 288.96875 329.132812 288.566406 329.574219 C 288.164062 330.015625 287.605469 330.277344 287.007812 330.304688 L 268.90625 331.128906 C 268.3125 331.15625 267.730469 330.945312 267.289062 330.542969 C 266.847656 330.144531 266.585938 329.582031 266.558594 328.988281 L 265.871094 313.945312 C 265.84375 313.351562 266.054688 312.769531 266.457031 312.328125 C 266.859375 311.886719 267.417969 311.625 268.015625 311.597656 Z M 268.015625 311.597656 " clip-rule="nonzero"/></clipPath><clipPath id="ace10e3038"><path d="M 276 320 L 304 320 L 304 345 L 276 345 Z M 276 320 " clip-rule="nonzero"/></clipPath><clipPath id="92ae5f21ea"><path d="M 279.433594 319.875 L 303.929688 323.191406 L 300.949219 345.195312 L 276.453125 341.878906 Z M 279.433594 319.875 " clip-rule="nonzero"/></clipPath><clipPath id="cbb8c2020c"><path d="M 281.660156 320.175781 L 301.660156 322.882812 C 302.25 322.960938 302.785156 323.273438 303.144531 323.746094 C 303.503906 324.222656 303.664062 324.820312 303.582031 325.410156 L 301.207031 342.960938 C 301.128906 343.550781 300.816406 344.085938 300.34375 344.449219 C 299.867188 344.808594 299.269531 344.964844 298.679688 344.886719 L 278.679688 342.179688 C 278.089844 342.097656 277.554688 341.789062 277.191406 341.3125 C 276.832031 340.839844 276.675781 340.242188 276.753906 339.652344 L 279.128906 322.101562 C 279.210938 321.507812 279.523438 320.976562 279.996094 320.613281 C 280.46875 320.253906 281.066406 320.09375 281.660156 320.175781 Z M 281.660156 320.175781 " clip-rule="nonzero"/></clipPath><clipPath id="fddc1bab2b"><path d="M 277 321 L 303 321 L 303 343 L 277 343 Z M 277 321 " clip-rule="nonzero"/></clipPath><clipPath id="1048bfb97a"><path d="M 279.964844 320.785156 L 302.445312 323.828125 L 299.820312 343.203125 L 277.34375 340.160156 Z M 279.964844 320.785156 " clip-rule="nonzero"/></clipPath><clipPath id="e5b43f7c96"><path d="M 282.191406 321.085938 L 300.148438 323.519531 C 300.742188 323.597656 301.273438 323.910156 301.636719 324.382812 C 301.996094 324.859375 302.15625 325.457031 302.074219 326.046875 L 300.054688 340.96875 C 299.976562 341.558594 299.664062 342.09375 299.191406 342.453125 C 298.714844 342.816406 298.117188 342.972656 297.527344 342.894531 L 279.570312 340.460938 C 278.980469 340.382812 278.445312 340.070312 278.082031 339.597656 C 277.722656 339.121094 277.5625 338.523438 277.644531 337.933594 L 279.664062 323.011719 C 279.746094 322.421875 280.054688 321.886719 280.53125 321.527344 C 281.003906 321.164062 281.601562 321.007812 282.191406 321.085938 Z M 282.191406 321.085938 " clip-rule="nonzero"/></clipPath><clipPath id="3c0bbd23da"><path d="M 69.925781 58.199219 L 407.378906 58.199219 L 407.378906 443.015625 L 69.925781 443.015625 Z M 69.925781 58.199219 " clip-rule="nonzero"/></clipPath></defs><g clip-path="url(#ab1f439222)"><path fill="#ffb6c1" d="M 24.871094 0 L 434.660156 0 L 434.660156 26.234375 L 24.871094 26.234375 Z M 24.871094 0 " fill-opacity="1" fill-rule="nonzero"/></g><g clip-path="url(#7fc70b5ca3)"><path fill="#ffb6c1" d="M 24.863281 26.238281 L 24.863281 520.78125 L 3.128906 520.78125 L 3.128906 26.238281 Z M 24.863281 26.238281 " fill-opacity="1" fill-rule="nonzero"/></g><g clip-path="url(#a7592c9ac3)"><path fill="#ffb6c1" d="M 456.355469 26.238281 L 456.355469 520.78125 L 434.621094 520.78125 L 434.621094 26.238281 Z M 456.355469 26.238281 " fill-opacity="1" fill-rule="nonzero"/></g><g clip-path="url(#b1556a02b8)"><path fill="#ffb6c1" d="M 24.871094 518.269531 L 434.660156 518.269531 L 434.660156 544.5 L 24.871094 544.5 Z M 24.871094 518.269531 " fill-opacity="1" fill-rule="nonzero"/></g><g clip-path="url(#d502cc3226)"><path fill="#ed7793" d="M 44.570312 26.179688 L 414.957031 26.179688 L 414.957031 49.886719 L 44.570312 49.886719 Z M 44.570312 26.179688 " fill-opacity="1" fill-rule="nonzero"/></g><g clip-path="url(#f93e7bdbd5)"><path fill="#ed7793" d="M 44.5625 49.890625 L 44.5625 496.878906 L 24.917969 496.878906 L 24.917969 49.890625 Z M 44.5625 49.890625 " fill-opacity="1" fill-rule="nonzero"/></g><g clip-path="url(#289c46b9fa)"><path fill="#ed7793" d="M 434.566406 49.890625 L 434.566406 496.878906 L 414.921875 496.878906 L 414.921875 49.890625 Z M 434.566406 49.890625 " fill-opacity="1" fill-rule="nonzero"/></g><g clip-path="url(#1deba6a0d7)"><path fill="#ed7793" d="M 44.570312 494.613281 L 414.957031 494.613281 L 414.957031 518.324219 L 44.570312 518.324219 Z M 44.570312 494.613281 " fill-opacity="1" fill-rule="nonzero"/></g><g clip-path="url(#53f0e0ba82)"><path fill="#ffd700" d="M 42.320312 48.738281 L 416.324219 48.738281 L 416.324219 495.792969 L 42.320312 495.792969 Z M 42.320312 48.738281 " fill-opacity="1" fill-rule="nonzero"/></g><g clip-path="url(#dbc52d5972)"><path fill="#70afc8" d="M 95.339844 171.644531 L 190.636719 171.644531 L 190.636719 180.640625 L 95.339844 180.640625 Z M 95.339844 171.644531 " fill-opacity="1" fill-rule="nonzero"/></g><g clip-path="url(#02da9d147c)"><path fill="#70afc8" d="M 190.652344 180.640625 L 204.917969 180.640625 L 204.917969 189.636719 L 190.652344 189.636719 Z M 190.652344 180.640625 " fill-opacity="1" fill-rule="nonzero"/></g><g clip-path="url(#b94f10e30f)"><path fill="#70afc8" d="M 204.925781 189.636719 L 212.136719 189.636719 L 212.136719 233.273438 L 204.925781 233.273438 Z M 204.925781 189.636719 " fill-opacity="1" fill-rule="nonzero"/></g><g clip-path="url(#6e293b4301)"><path fill="#70afc8" d="M 190.652344 233.265625 L 204.917969 233.265625 L 204.917969 242.261719 L 190.652344 242.261719 Z M 190.652344 233.265625 " fill-opacity="1" fill-rule="nonzero"/></g><g clip-path="url(#22f53978c7)"><path fill="#70afc8" d="M 95.199219 242.261719 L 190.5 242.261719 L 190.5 251.257812 L 95.199219 251.257812 Z M 95.199219 242.261719 " fill-opacity="1" fill-rule="nonzero"/></g><g clip-path="url(#a09a25ed61)"><path fill="#70afc8" d="M 81.066406 180.640625 L 95.332031 180.640625 L 95.332031 189.636719 L 81.066406 189.636719 Z M 81.066406 180.640625 " fill-opacity="1" fill-rule="nonzero"/></g><g clip-path="url(#b92684089e)"><path fill="#70afc8" d="M 73.855469 189.636719 L 81.066406 189.636719 L 81.066406 233.273438 L 73.855469 233.273438 Z M 73.855469 189.636719 " fill-opacity="1" fill-rule="nonzero"/></g><g clip-path="url(#5b4710762f)"><path fill="#70afc8" d="M 81.066406 233.265625 L 95.332031 233.265625 L 95.332031 242.261719 L 81.066406 242.261719 Z M 81.066406 233.265625 " fill-opacity="1" fill-rule="nonzero"/></g><g clip-path="url(#5910b3b5e5)"><path fill="#70afc8" d="M 272.5625 171.644531 L 367.859375 171.644531 L 367.859375 180.640625 L 272.5625 180.640625 Z M 272.5625 171.644531 " fill-opacity="1" fill-rule="nonzero"/></g><g clip-path="url(#c3b8cc00e5)"><path fill="#70afc8" d="M 367.871094 180.640625 L 382.140625 180.640625 L 382.140625 189.636719 L 367.871094 189.636719 Z M 367.871094 180.640625 " fill-opacity="1" fill-rule="nonzero"/></g><g clip-path="url(#c83bc9e7db)"><path fill="#70afc8" d="M 382.144531 189.636719 L 389.359375 189.636719 L 389.359375 233.273438 L 382.144531 233.273438 Z M 382.144531 189.636719 " fill-opacity="1" fill-rule="nonzero"/></g><g clip-path="url(#26d5756bb2)"><path fill="#70afc8" d="M 367.871094 233.265625 L 382.140625 233.265625 L 382.140625 242.261719 L 367.871094 242.261719 Z M 367.871094 233.265625 " fill-opacity="1" fill-rule="nonzero"/></g><g clip-path="url(#02666637bb)"><path fill="#70afc8" d="M 272.421875 242.261719 L 367.722656 242.261719 L 367.722656 251.257812 L 272.421875 251.257812 Z M 272.421875 242.261719 " fill-opacity="1" fill-rule="nonzero"/></g><g clip-path="url(#a14e6e6347)"><path fill="#70afc8" d="M 258.289062 180.640625 L 272.554688 180.640625 L 272.554688 189.636719 L 258.289062 189.636719 Z M 258.289062 180.640625 " fill-opacity="1" fill-rule="nonzero"/></g><g clip-path="url(#07029cba95)"><path fill="#70afc8" d="M 251.074219 189.636719 L 258.289062 189.636719 L 258.289062 233.273438 L 251.074219 233.273438 Z M 251.074219 189.636719 " fill-opacity="1" fill-rule="nonzero"/></g><g clip-path="url(#55d8a7da18)"><path fill="#70afc8" d="M 258.289062 233.265625 L 272.554688 233.265625 L 272.554688 242.261719 L 258.289062 242.261719 Z M 258.289062 233.265625 " fill-opacity="1" fill-rule="nonzero"/></g><g clip-path="url(#8ccdf03e77)"><path fill="#70afc8" d="M 95.339844 284.007812 L 190.636719 284.007812 L 190.636719 293.003906 L 95.339844 293.003906 Z M 95.339844 284.007812 " fill-opacity="1" fill-rule="nonzero"/></g><g clip-path="url(#89e989d232)"><path fill="#70afc8" d="M 190.652344 293.003906 L 204.917969 293.003906 L 204.917969 302 L 190.652344 302 Z M 190.652344 293.003906 " fill-opacity="1" fill-rule="nonzero"/></g><g clip-path="url(#c4ac310a3b)"><path fill="#70afc8" d="M 204.925781 302 L 212.136719 302 L 212.136719 345.636719 L 204.925781 345.636719 Z M 204.925781 302 " fill-opacity="1" fill-rule="nonzero"/></g><g clip-path="url(#c10041f394)"><path fill="#70afc8" d="M 190.652344 345.632812 L 204.917969 345.632812 L 204.917969 354.625 L 190.652344 354.625 Z M 190.652344 345.632812 " fill-opacity="1" fill-rule="nonzero"/></g><g clip-path="url(#cbd189926b)"><path fill="#70afc8" d="M 95.199219 354.625 L 190.5 354.625 L 190.5 363.621094 L 95.199219 363.621094 Z M 95.199219 354.625 " fill-opacity="1" fill-rule="nonzero"/></g><g clip-path="url(#aa2ac33858)"><path fill="#70afc8" d="M 81.066406 293.003906 L 95.332031 293.003906 L 95.332031 302 L 81.066406 302 Z M 81.066406 293.003906 " fill-opacity="1" fill-rule="nonzero"/></g><g clip-path="url(#cf6566a5cf)"><path fill="#70afc8" d="M 73.855469 302 L 81.066406 302 L 81.066406 345.636719 L 73.855469 345.636719 Z M 73.855469 302 " fill-opacity="1" fill-rule="nonzero"/></g><g clip-path="url(#0bf2431679)"><path fill="#70afc8" d="M 81.066406 345.632812 L 95.332031 345.632812 L 95.332031 354.625 L 81.066406 354.625 Z M 81.066406 345.632812 " fill-opacity="1" fill-rule="nonzero"/></g><g clip-path="url(#75e6d85044)"><path fill="#70afc8" d="M 272.5625 288.140625 L 367.859375 288.140625 L 367.859375 297.136719 L 272.5625 297.136719 Z M 272.5625 288.140625 " fill-opacity="1" fill-rule="nonzero"/></g><g clip-path="url(#8982c52f63)"><path fill="#70afc8" d="M 367.871094 297.136719 L 382.140625 297.136719 L 382.140625 306.132812 L 367.871094 306.132812 Z M 367.871094 297.136719 " fill-opacity="1" fill-rule="nonzero"/></g><g clip-path="url(#a58d916901)"><path fill="#70afc8" d="M 382.144531 306.132812 L 389.359375 306.132812 L 389.359375 349.769531 L 382.144531 349.769531 Z M 382.144531 306.132812 " fill-opacity="1" fill-rule="nonzero"/></g><g clip-path="url(#01cb4f0d22)"><path fill="#70afc8" d="M 367.871094 349.761719 L 382.140625 349.761719 L 382.140625 358.757812 L 367.871094 358.757812 Z M 367.871094 349.761719 " fill-opacity="1" fill-rule="nonzero"/></g><g clip-path="url(#c34657ad35)"><path fill="#70afc8" d="M 272.421875 358.757812 L 367.722656 358.757812 L 367.722656 367.753906 L 272.421875 367.753906 Z M 272.421875 358.757812 " fill-opacity="1" fill-rule="nonzero"/></g><g clip-path="url(#b421a1548c)"><path fill="#70afc8" d="M 258.289062 297.136719 L 272.554688 297.136719 L 272.554688 306.132812 L 258.289062 306.132812 Z M 258.289062 297.136719 " fill-opacity="1" fill-rule="nonzero"/></g><g clip-path="url(#600df3fcc9)"><path fill="#70afc8" d="M 251.074219 306.132812 L 258.289062 306.132812 L 258.289062 349.769531 L 251.074219 349.769531 Z M 251.074219 306.132812 " fill-opacity="1" fill-rule="nonzero"/></g><g clip-path="url(#8cbf2a11e6)"><path fill="#70afc8" d="M 258.289062 349.761719 L 272.554688 349.761719 L 272.554688 358.757812 L 258.289062 358.757812 Z M 258.289062 349.761719 " fill-opacity="1" fill-rule="nonzero"/></g><g clip-path="url(#64ae5cb31e)"><g clip-path="url(#5daabe7b66)"><g clip-path="url(#1cf1ae45a7)"><path fill="#444444" d="M 91.175781 195.496094 L 115.785156 194.371094 L 116.796875 216.554688 L 92.1875 217.675781 Z M 91.175781 195.496094 " fill-opacity="1" fill-rule="nonzero"/></g></g></g><g clip-path="url(#067d5ffc00)"><g clip-path="url(#3e840a397f)"><g clip-path="url(#cd886bebfc)"><path fill="#87ceeb" d="M 91.863281 196.296875 L 114.449219 195.265625 L 115.339844 214.796875 L 92.757812 215.828125 Z M 91.863281 196.296875 " fill-opacity="1" fill-rule="nonzero"/></g></g></g><g clip-path="url(#46313a0636)"><g clip-path="url(#fdb24db896)"><g clip-path="url(#260972a172)"><path fill="#444444" d="M 105.527344 204.46875 L 129.9375 207.773438 L 126.957031 229.777344 L 102.546875 226.472656 Z M 105.527344 204.46875 " fill-opacity="1" fill-rule="nonzero"/></g></g></g><g clip-path="url(#2ad4976035)"><g clip-path="url(#67614c9f19)"><g clip-path="url(#2f43058ae3)"><path fill="#87ceeb" d="M 106.058594 205.382812 L 128.460938 208.414062 L 125.839844 227.789062 L 103.4375 224.757812 Z M 106.058594 205.382812 " fill-opacity="1" fill-rule="nonzero"/></g></g></g><g fill="#444444" fill-opacity="1"><g transform="translate(135.187526, 227.122213)"><g><path d="M 0 -22.921875 L 4.59375 -22.921875 L 4.59375 -27.515625 L 9.15625 -27.515625 L 9.15625 -32.09375 L 13.75 -32.09375 L 13.75 -13.765625 L 18.328125 -13.765625 L 18.328125 -9.171875 L 13.75 -9.171875 L 13.75 0 L 9.15625 0 L 9.15625 -9.171875 L 0 -9.171875 Z M 9.15625 -13.765625 L 9.15625 -22.875 L 4.59375 -22.875 L 4.59375 -13.765625 Z M 9.15625 -13.765625 "/></g></g></g><g fill="#444444" fill-opacity="1"><g transform="translate(158.108116, 227.122213)"><g><path d="M 9.171875 -9.171875 L 4.59375 -9.171875 L 4.59375 -13.765625 L 0 -13.765625 L 0 -22.921875 L 4.59375 -22.921875 L 4.59375 -13.765625 L 9.171875 -13.765625 Z M 9.15625 -13.75 L 9.15625 -22.921875 L 13.75 -22.921875 L 13.75 -13.75 Z M 0 -9.171875 L 4.59375 -9.171875 L 4.59375 0 L 0 0 Z M 9.15625 -9.171875 L 13.75 -9.171875 L 13.75 0 L 9.15625 0 Z M 9.15625 -9.171875 "/></g></g></g><g fill="#444444" fill-opacity="1"><g transform="translate(176.440112, 227.122213)"><g><path d="M 18.328125 -27.515625 L 18.328125 -18.328125 L 13.75 -18.328125 L 13.75 -27.515625 L 4.59375 -27.515625 L 4.59375 -32.09375 L 13.75 -32.09375 L 13.75 -27.515625 Z M 4.59375 0 L 4.59375 -4.59375 L 0 -4.59375 L 0 -9.171875 L 4.59375 -9.171875 L 4.59375 -4.59375 L 13.765625 -4.59375 L 13.765625 0 Z M 9.15625 -13.75 L 9.15625 -18.328125 L 13.75 -18.328125 L 13.75 -13.75 L 18.328125 -13.75 L 18.328125 -4.59375 L 13.75 -4.59375 L 13.75 -13.75 Z M 0 -27.515625 L 4.59375 -27.515625 L 4.59375 -22.921875 L 0 -22.921875 Z M 0 -27.515625 "/></g></g></g><g clip-path="url(#61df82bcfb)"><g clip-path="url(#59ab971ec6)"><g clip-path="url(#d9d9206359)"><path fill="#444444" d="M 265.082031 195.496094 L 289.6875 194.371094 L 290.703125 216.554688 L 266.09375 217.675781 Z M 265.082031 195.496094 " fill-opacity="1" fill-rule="nonzero"/></g></g></g><g clip-path="url(#688a0db01a)"><g clip-path="url(#9eec19982b)"><g clip-path="url(#0a25d26fc7)"><path fill="#87ceeb" d="M 265.769531 196.296875 L 288.355469 195.265625 L 289.246094 214.796875 L 266.660156 215.828125 Z M 265.769531 196.296875 " fill-opacity="1" fill-rule="nonzero"/></g></g></g><g clip-path="url(#66436e66f9)"><g clip-path="url(#3ae8d8a2ec)"><g clip-path="url(#281837d772)"><path fill="#444444" d="M 279.433594 204.46875 L 303.84375 207.773438 L 300.863281 229.777344 L 276.453125 226.472656 Z M 279.433594 204.46875 " fill-opacity="1" fill-rule="nonzero"/></g></g></g><g clip-path="url(#5b6028c092)"><g clip-path="url(#07ef89faee)"><g clip-path="url(#20df21b9c9)"><path fill="#87ceeb" d="M 279.964844 205.382812 L 302.367188 208.414062 L 299.746094 227.789062 L 277.34375 224.757812 Z M 279.964844 205.382812 " fill-opacity="1" fill-rule="nonzero"/></g></g></g><g fill="#444444" fill-opacity="1"><g transform="translate(309.092942, 227.122213)"><g><path d="M 0 -22.921875 L 4.59375 -22.921875 L 4.59375 -27.515625 L 9.15625 -27.515625 L 9.15625 -32.09375 L 13.75 -32.09375 L 13.75 -13.765625 L 18.328125 -13.765625 L 18.328125 -9.171875 L 13.75 -9.171875 L 13.75 0 L 9.15625 0 L 9.15625 -9.171875 L 0 -9.171875 Z M 9.15625 -13.765625 L 9.15625 -22.875 L 4.59375 -22.875 L 4.59375 -13.765625 Z M 9.15625 -13.765625 "/></g></g></g><g fill="#444444" fill-opacity="1"><g transform="translate(332.013532, 227.122213)"><g><path d="M 9.171875 -9.171875 L 4.59375 -9.171875 L 4.59375 -13.765625 L 0 -13.765625 L 0 -22.921875 L 4.59375 -22.921875 L 4.59375 -13.765625 L 9.171875 -13.765625 Z M 9.15625 -13.75 L 9.15625 -22.921875 L 13.75 -22.921875 L 13.75 -13.75 Z M 0 -9.171875 L 4.59375 -9.171875 L 4.59375 0 L 0 0 Z M 9.15625 -9.171875 L 13.75 -9.171875 L 13.75 0 L 9.15625 0 Z M 9.15625 -9.171875 "/></g></g></g><g fill="#444444" fill-opacity="1"><g transform="translate(350.345528, 227.122213)"><g><path d="M 0 -22.921875 L 4.59375 -22.921875 L 4.59375 -27.515625 L 9.15625 -27.515625 L 9.15625 -32.09375 L 13.75 -32.09375 L 13.75 -13.765625 L 18.328125 -13.765625 L 18.328125 -9.171875 L 13.75 -9.171875 L 13.75 0 L 9.15625 0 L 9.15625 -9.171875 L 0 -9.171875 Z M 9.15625 -13.765625 L 9.15625 -22.875 L 4.59375 -22.875 L 4.59375 -13.765625 Z M 9.15625 -13.765625 "/></g></g></g><g clip-path="url(#28d5f2853a)"><g clip-path="url(#fb1af50170)"><g clip-path="url(#ce998dd193)"><path fill="#444444" d="M 87.859375 306.765625 L 112.46875 305.644531 L 113.480469 327.824219 L 88.871094 328.949219 Z M 87.859375 306.765625 " fill-opacity="1" fill-rule="nonzero"/></g></g></g><g clip-path="url(#daa56b18ac)"><g clip-path="url(#b8250915ad)"><g clip-path="url(#605fe1f6ed)"><path fill="#87ceeb" d="M 88.546875 307.566406 L 111.132812 306.539062 L 112.023438 326.070312 L 89.4375 327.101562 Z M 88.546875 307.566406 " fill-opacity="1" fill-rule="nonzero"/></g></g></g><g clip-path="url(#b3ddec2a22)"><g clip-path="url(#074a11c0c3)"><g clip-path="url(#c9b9708b41)"><path fill="#444444" d="M 102.210938 315.742188 L 126.621094 319.046875 L 123.640625 341.050781 L 99.230469 337.746094 Z M 102.210938 315.742188 " fill-opacity="1" fill-rule="nonzero"/></g></g></g><g clip-path="url(#8d391c06a1)"><g clip-path="url(#912e6e8aec)"><g clip-path="url(#959c523af2)"><path fill="#87ceeb" d="M 102.742188 316.652344 L 125.144531 319.6875 L 122.523438 339.0625 L 100.121094 336.027344 Z M 102.742188 316.652344 " fill-opacity="1" fill-rule="nonzero"/></g></g></g><g fill="#444444" fill-opacity="1"><g transform="translate(131.870791, 338.39369)"><g><path d="M 4.59375 -27.515625 L 4.59375 -22.921875 L 13.75 -22.921875 L 13.75 -18.328125 L 18.328125 -18.328125 L 18.328125 -4.59375 L 13.75 -4.59375 L 13.75 -18.328125 L 0 -18.328125 L 0 -32.09375 L 18.328125 -32.09375 L 18.328125 -27.515625 Z M 4.59375 0 L 4.59375 -4.59375 L 0 -4.59375 L 0 -9.171875 L 4.59375 -9.171875 L 4.59375 -4.59375 L 13.765625 -4.59375 L 13.765625 0 Z M 4.59375 0 "/></g></g></g><g fill="#444444" fill-opacity="1"><g transform="translate(154.791381, 338.39369)"><g><path d="M 9.171875 -9.171875 L 4.59375 -9.171875 L 4.59375 -13.765625 L 0 -13.765625 L 0 -22.921875 L 4.59375 -22.921875 L 4.59375 -13.765625 L 9.171875 -13.765625 Z M 9.15625 -13.75 L 9.15625 -22.921875 L 13.75 -22.921875 L 13.75 -13.75 Z M 0 -9.171875 L 4.59375 -9.171875 L 4.59375 0 L 0 0 Z M 9.15625 -9.171875 L 13.75 -9.171875 L 13.75 0 L 9.15625 0 Z M 9.15625 -9.171875 "/></g></g></g><g fill="#444444" fill-opacity="1"><g transform="translate(173.123376, 338.39369)"><g><path d="M 0 -22.921875 L 4.59375 -22.921875 L 4.59375 -27.515625 L 9.15625 -27.515625 L 9.15625 -32.09375 L 13.75 -32.09375 L 13.75 -13.765625 L 18.328125 -13.765625 L 18.328125 -9.171875 L 13.75 -9.171875 L 13.75 0 L 9.15625 0 L 9.15625 -9.171875 L 0 -9.171875 Z M 9.15625 -13.765625 L 9.15625 -22.875 L 4.59375 -22.875 L 4.59375 -13.765625 Z M 9.15625 -13.765625 "/></g></g></g><g clip-path="url(#34ba8fa9b3)"><g clip-path="url(#7443058110)"><g clip-path="url(#70b2f63ce4)"><path fill="#444444" d="M 265.082031 310.898438 L 289.6875 309.777344 L 290.703125 331.957031 L 266.09375 333.082031 Z M 265.082031 310.898438 " fill-opacity="1" fill-rule="nonzero"/></g></g></g><g clip-path="url(#cf55fbd06e)"><g clip-path="url(#662edcd368)"><g clip-path="url(#dab6ef769d)"><path fill="#87ceeb" d="M 265.769531 311.699219 L 288.355469 310.671875 L 289.246094 330.203125 L 266.660156 331.230469 Z M 265.769531 311.699219 " fill-opacity="1" fill-rule="nonzero"/></g></g></g><g clip-path="url(#ace10e3038)"><g clip-path="url(#92ae5f21ea)"><g clip-path="url(#cbb8c2020c)"><path fill="#444444" d="M 279.433594 319.875 L 303.84375 323.179688 L 300.863281 345.183594 L 276.453125 341.878906 Z M 279.433594 319.875 " fill-opacity="1" fill-rule="nonzero"/></g></g></g><g clip-path="url(#fddc1bab2b)"><g clip-path="url(#1048bfb97a)"><g clip-path="url(#e5b43f7c96)"><path fill="#87ceeb" d="M 279.964844 320.785156 L 302.367188 323.820312 L 299.746094 343.195312 L 277.34375 340.160156 Z M 279.964844 320.785156 " fill-opacity="1" fill-rule="nonzero"/></g></g></g><g fill="#444444" fill-opacity="1"><g transform="translate(309.092942, 342.526042)"><g><path d="M 4.59375 -4.59375 L 0 -4.59375 L 0 -27.515625 L 4.59375 -27.515625 L 4.59375 -18.328125 L 13.75 -18.328125 L 13.75 -13.75 L 18.328125 -13.75 L 18.328125 -4.59375 L 13.75 -4.59375 L 13.75 0 L 4.59375 0 Z M 4.640625 -13.75 L 4.640625 -4.59375 L 13.703125 -4.59375 L 13.703125 -13.75 Z M 4.59375 -32.09375 L 13.75 -32.09375 L 13.75 -27.515625 L 18.328125 -27.515625 L 18.328125 -22.921875 L 13.75 -22.921875 L 13.75 -27.515625 L 4.59375 -27.515625 Z M 4.59375 -32.09375 "/></g></g></g><g fill="#444444" fill-opacity="1"><g transform="translate(332.013532, 342.526042)"><g><path d="M 9.171875 -9.171875 L 4.59375 -9.171875 L 4.59375 -13.765625 L 0 -13.765625 L 0 -22.921875 L 4.59375 -22.921875 L 4.59375 -13.765625 L 9.171875 -13.765625 Z M 9.15625 -13.75 L 9.15625 -22.921875 L 13.75 -22.921875 L 13.75 -13.75 Z M 0 -9.171875 L 4.59375 -9.171875 L 4.59375 0 L 0 0 Z M 9.15625 -9.171875 L 13.75 -9.171875 L 13.75 0 L 9.15625 0 Z M 9.15625 -9.171875 "/></g></g></g><g fill="#444444" fill-opacity="1"><g transform="translate(350.345528, 342.526042)"><g><path d="M 4.59375 -27.515625 L 4.59375 -22.921875 L 13.75 -22.921875 L 13.75 -18.328125 L 18.328125 -18.328125 L 18.328125 -4.59375 L 13.75 -4.59375 L 13.75 -18.328125 L 0 -18.328125 L 0 -32.09375 L 18.328125 -32.09375 L 18.328125 -27.515625 Z M 4.59375 0 L 4.59375 -4.59375 L 0 -4.59375 L 0 -9.171875 L 4.59375 -9.171875 L 4.59375 -4.59375 L 13.765625 -4.59375 L 13.765625 0 Z M 4.59375 0 "/></g></g></g><g fill="#318b4f" fill-opacity="1"><g transform="translate(83.863215, 97.141017)"><g><path d="M 2.0625 0 L 2.0625 -20.546875 L 18.5 -20.546875 L 18.5 -16.4375 L 6.171875 -16.4375 L 6.171875 -8.21875 L 18.5 -8.21875 L 18.5 -4.109375 L 6.171875 -4.109375 L 6.171875 0 Z M 18.5 -8.21875 L 18.5 -16.4375 L 22.609375 -16.4375 L 22.609375 -8.21875 Z M 18.5 -8.21875 "/></g></g></g><g fill="#318b4f" fill-opacity="1"><g transform="translate(108.519237, 97.141017)"><g><path d="M 2.0625 0 L 2.0625 -4.109375 L 6.171875 -4.109375 L 6.171875 -16.4375 L 2.0625 -16.4375 L 2.0625 -20.546875 L 14.390625 -20.546875 L 14.390625 -16.4375 L 10.28125 -16.4375 L 10.28125 -4.109375 L 14.390625 -4.109375 L 14.390625 0 Z M 2.0625 0 "/></g></g></g><g fill="#318b4f" fill-opacity="1"><g transform="translate(124.956585, 97.141017)"><g><path d="M 6.171875 0 L 6.171875 -4.109375 L 22.609375 -4.109375 L 22.609375 0 Z M 2.0625 -4.109375 L 2.0625 -20.546875 L 6.171875 -20.546875 L 6.171875 -4.109375 Z M 2.0625 -4.109375 "/></g></g></g><g fill="#318b4f" fill-opacity="1"><g transform="translate(149.612606, 97.141017)"><g><path d="M 2.0625 0 L 2.0625 -4.109375 L 6.171875 -4.109375 L 6.171875 -16.4375 L 2.0625 -16.4375 L 2.0625 -20.546875 L 14.390625 -20.546875 L 14.390625 -16.4375 L 10.28125 -16.4375 L 10.28125 -4.109375 L 14.390625 -4.109375 L 14.390625 0 Z M 2.0625 0 "/></g></g></g><g fill="#318b4f" fill-opacity="1"><g transform="translate(166.049954, 97.141017)"><g><path d="M 2.0625 0 L 2.0625 -20.546875 L 6.171875 -20.546875 L 6.171875 -12.328125 L 18.5 -12.328125 L 18.5 -20.546875 L 22.609375 -20.546875 L 22.609375 0 L 18.5 0 L 18.5 -8.21875 L 6.171875 -8.21875 L 6.171875 0 Z M 2.0625 0 "/></g></g></g><g fill="#318b4f" fill-opacity="1"><g transform="translate(190.705975, 97.141017)"><g/></g></g><g fill="#318b4f" fill-opacity="1"><g transform="translate(203.033981, 97.141017)"><g><path d="M 6.171875 0 L 6.171875 -4.109375 L 22.609375 -4.109375 L 22.609375 0 Z M 2.0625 -4.109375 L 2.0625 -20.546875 L 6.171875 -20.546875 L 6.171875 -4.109375 Z M 2.0625 -4.109375 "/></g></g></g><g fill="#318b4f" fill-opacity="1"><g transform="translate(227.690002, 97.141017)"><g><path d="M 2.0625 0 L 2.0625 -20.546875 L 22.609375 -20.546875 L 22.609375 -16.4375 L 6.171875 -16.4375 L 6.171875 -12.328125 L 18.5 -12.328125 L 18.5 -8.21875 L 6.171875 -8.21875 L 6.171875 -4.109375 L 22.609375 -4.109375 L 22.609375 0 Z M 2.0625 0 "/></g></g></g><g fill="#318b4f" fill-opacity="1"><g transform="translate(252.346023, 97.141017)"><g><path d="M 18.5 -8.21875 L 18.5 -4.109375 L 14.390625 -4.109375 L 14.390625 -8.21875 Z M 2.0625 -8.21875 L 2.0625 -20.546875 L 6.171875 -20.546875 L 6.171875 -8.21875 Z M 6.171875 -4.109375 L 6.171875 -8.21875 L 10.28125 -8.21875 L 10.28125 -4.109375 Z M 10.28125 0 L 10.28125 -4.109375 L 14.390625 -4.109375 L 14.390625 0 Z M 18.5 -8.21875 L 18.5 -20.546875 L 22.609375 -20.546875 L 22.609375 -8.21875 Z M 18.5 -8.21875 "/></g></g></g><g fill="#318b4f" fill-opacity="1"><g transform="translate(277.002044, 97.141017)"><g><path d="M 2.0625 0 L 2.0625 -20.546875 L 22.609375 -20.546875 L 22.609375 -16.4375 L 6.171875 -16.4375 L 6.171875 -12.328125 L 18.5 -12.328125 L 18.5 -8.21875 L 6.171875 -8.21875 L 6.171875 -4.109375 L 22.609375 -4.109375 L 22.609375 0 Z M 2.0625 0 "/></g></g></g><g fill="#318b4f" fill-opacity="1"><g transform="translate(301.658056, 97.141017)"><g><path d="M 6.171875 0 L 6.171875 -4.109375 L 22.609375 -4.109375 L 22.609375 0 Z M 2.0625 -4.109375 L 2.0625 -20.546875 L 6.171875 -20.546875 L 6.171875 -4.109375 Z M 2.0625 -4.109375 "/></g></g></g><g fill="#318b4f" fill-opacity="1"><g transform="translate(326.314067, 97.141017)"><g><path d="M 18.5 0 L 18.5 -12.328125 L 14.390625 -12.328125 L 14.390625 -16.4375 L 18.5 -16.4375 L 18.5 -20.546875 L 22.609375 -20.546875 L 22.609375 0 Z M 2.0625 0 L 2.0625 -20.546875 L 6.171875 -20.546875 L 6.171875 -16.4375 L 10.28125 -16.4375 L 10.28125 -12.328125 L 6.171875 -12.328125 L 6.171875 0 Z M 10.28125 -8.21875 L 10.28125 -12.328125 L 14.390625 -12.328125 L 14.390625 -8.21875 Z M 10.28125 -8.21875 "/></g></g></g><g fill="#318b4f" fill-opacity="1"><g transform="translate(350.970078, 97.141017)"><g><path d="M 18.5 -4.109375 L 18.5 0 L 6.171875 0 L 6.171875 -4.109375 Z M 2.0625 -4.109375 L 2.0625 -20.546875 L 6.171875 -20.546875 L 6.171875 -4.109375 Z M 18.5 -4.109375 L 18.5 -20.546875 L 22.609375 -20.546875 L 22.609375 -4.109375 Z M 18.5 -4.109375 "/></g></g></g><g clip-path="url(#3c0bbd23da)"><path fill="#ffd700" d="M 69.925781 58.199219 L 407.378906 58.199219 L 407.378906 443.105469 L 69.925781 443.105469 Z M 69.925781 58.199219 " fill-opacity="1" fill-rule="nonzero"/></g></svg>